<svg xmlns="http://www.w3.org/2000/svg" width="73.031" height="68.609"><defs><style>.cls-1{fill:#f90029}</style></defs><g id="online-education" transform="translate(0 -15.5)"><path id="Trazado_39" data-name="Trazado 39" class="cls-1" d="M146.386 142.911l15.635 6.254 15.635-6.254-15.635-6.254z" transform="translate(-125.506 -103.875)"/><path id="Trazado_40" data-name="Trazado 40" class="cls-1" d="M181 226.652v4.938l10.7 4.279 10.7-4.279v-4.938l-10.7 4.28z" transform="translate(-155.182 -181.034)"/><path id="Trazado_41" data-name="Trazado 41" class="cls-1" d="M0 15.5v55.629h73.031V15.5zm60.051 42.792h-4.279v-16.1l-4.279 1.712v9.546l-14.977 5.995-14.978-5.993v-9.545L9.359 39.035l27.157-10.863 23.535 9.415z"/><path id="Trazado_42" data-name="Trazado 42" class="cls-1" d="M148.931 436.5h-17.349l-1.427 4.279H121v4.279h38.513v-4.279h-9.155z" transform="translate(-103.741 -360.949)"/></g></svg>