<svg xmlns="http://www.w3.org/2000/svg" width="40" height="40.907"><defs><style>.cls-1{fill:#ff0023}</style></defs><g id="calendar" transform="translate(-5.411)"><g id="Grupo_6" data-name="Grupo 6" transform="translate(5.411)"><path id="Trazado_7" data-name="Trazado 7" class="cls-1" d="M122.006 259.147a.9.9 0 00-.906-.9h-3.16a.9.9 0 00-.905.9v3.16a.905.905 0 00.905.905h3.16a.905.905 0 00.906-.905v-3.16z" transform="translate(-107.647 -236.525)"/><path id="Trazado_8" data-name="Trazado 8" class="cls-1" d="M218.64 259.147a.9.9 0 00-.9-.9h-3.16a.9.9 0 00-.905.9v3.16a.905.905 0 00.905.905h3.16a.905.905 0 00.9-.905z" transform="translate(-196.155 -236.525)"/><path id="Trazado_9" data-name="Trazado 9" class="cls-1" d="M315.269 259.147a.9.9 0 00-.905-.9H311.2a.9.9 0 00-.906.9v3.16a.905.905 0 00.906.905h3.16a.905.905 0 00.905-.905z" transform="translate(-284.656 -236.525)"/><path id="Trazado_10" data-name="Trazado 10" class="cls-1" d="M122.006 355.78a.9.9 0 00-.906-.905h-3.16a.9.9 0 00-.905.905v3.159a.905.905 0 00.905.905h3.16a.905.905 0 00.906-.905v-3.159z" transform="translate(-107.647 -324.861)"/><path id="Trazado_11" data-name="Trazado 11" class="cls-1" d="M218.64 355.78a.9.9 0 00-.9-.905h-3.16a.9.9 0 00-.905.905v3.159a.905.905 0 00.905.905h3.16a.905.905 0 00.9-.905z" transform="translate(-196.155 -324.861)"/><path id="Trazado_12" data-name="Trazado 12" class="cls-1" d="M315.269 355.78a.9.9 0 00-.9-.905H311.2a.9.9 0 00-.906.905v3.159a.905.905 0 00.906.905h3.16a.905.905 0 00.9-.905v-3.159z" transform="translate(-284.656 -324.861)"/><path id="Trazado_13" data-name="Trazado 13" class="cls-1" d="M41.851 54.16v4.964a4.048 4.048 0 01-4.051 4.051h-2.555a4.068 4.068 0 01-4.075-4.051v-4.982H19.652v4.981a4.068 4.068 0 01-4.074 4.051h-2.556a4.048 4.048 0 01-4.051-4.051V54.16a3.689 3.689 0 00-3.56 3.675v29.089a3.691 3.691 0 003.667 3.7h32.666a3.7 3.7 0 003.667-3.7V57.835a3.689 3.689 0 00-3.56-3.675zm-1.187 30.953a1.588 1.588 0 01-1.585 1.59H11.674a1.588 1.588 0 01-1.585-1.59V70.087a1.588 1.588 0 011.585-1.59h27.4a1.588 1.588 0 011.585 1.59v15.026z" transform="translate(-5.411 -49.717)"/><path id="Trazado_14" data-name="Trazado 14" class="cls-1" d="M80.9 10.62h2.47a1.354 1.354 0 001.355-1.354V1.354A1.355 1.355 0 0083.37 0H80.9a1.355 1.355 0 00-1.35 1.354v7.912a1.354 1.354 0 001.35 1.354z" transform="translate(-73.314)"/><path id="Trazado_15" data-name="Trazado 15" class="cls-1" d="M345.813 10.62h2.465a1.354 1.354 0 001.354-1.354V1.354A1.354 1.354 0 00348.278 0h-2.465a1.355 1.355 0 00-1.355 1.354v7.912a1.354 1.354 0 001.355 1.354z" transform="translate(-315.939)"/></g></g></svg>