<svg xmlns="http://www.w3.org/2000/svg" width="62.329" height="68"><defs><style>.cls-1{fill:#f90029}</style></defs><g id="timer" transform="translate(-1)"><path id="Trazado_43" data-name="Trazado 43" class="cls-1" d="M28.415 0a18.415 18.415 0 1018.416 18.415A18.437 18.437 0 0028.415 0zm6.253 24.668a2.83 2.83 0 01-4.006 0l-4.25-4.25a2.826 2.826 0 01-.83-2v-7.085a2.833 2.833 0 115.666 0v5.91l3.42 3.42a2.83 2.83 0 010 4.006z" transform="translate(16.498)"/><path id="Trazado_44" data-name="Trazado 44" class="cls-1" d="M52 41.449a24.34 24.34 0 01-7.086 1.051A24.086 24.086 0 0129.388 0H9.5A8.524 8.524 0 001 8.5v41.08c0 2.776 3.794 7.083 8.5 7.083H18v9.208a2.129 2.129 0 003.541 1.587l4.958-4.42 4.958 4.42A2.13 2.13 0 0035 65.871v-9.208h14.164A2.841 2.841 0 0052 53.83zM18 51H9.5a2.833 2.833 0 110-5.666H18zm28.33 0H35v-5.67h11.33z"/></g></svg>