<svg xmlns="http://www.w3.org/2000/svg" width="68.53" height="68.393"><defs><style>.cls-1{fill:#f90029}</style></defs><g id="coffee" transform="translate(0 -.511)"><g id="Grupo_40" data-name="Grupo 40" transform="translate(16.668 .511)"><g id="Grupo_39" data-name="Grupo 39" transform="translate(7.291)"><path id="Trazado_45" data-name="Trazado 45" class="cls-1" d="M301.008 15.47A2.008 2.008 0 01299 13.463a7.5 7.5 0 01.349-2.389 3.612 3.612 0 00.186-1.258 3.61 3.61 0 00-.186-1.259 7.5 7.5 0 01-.349-2.39 7.5 7.5 0 01.349-2.39 3.61 3.61 0 00.186-1.259 2.008 2.008 0 014.015 0 7.5 7.5 0 01-.349 2.39 3.61 3.61 0 00-.186 1.259 3.61 3.61 0 00.186 1.259 7.5 7.5 0 01.349 2.39 7.494 7.494 0 01-.35 2.384 3.613 3.613 0 00-.186 1.258 2.008 2.008 0 01-2.006 2.012z" transform="translate(-282.938 -.511)"/><path id="Trazado_46" data-name="Trazado 46" class="cls-1" d="M181.008 15.47A2.008 2.008 0 01179 13.463a7.5 7.5 0 01.349-2.389 3.612 3.612 0 00.186-1.258 3.61 3.61 0 00-.186-1.259 7.5 7.5 0 01-.349-2.39 7.5 7.5 0 01.349-2.39 3.61 3.61 0 00.186-1.259 2.008 2.008 0 114.015 0 7.5 7.5 0 01-.349 2.39 3.61 3.61 0 00-.186 1.259 3.61 3.61 0 00.186 1.259 7.5 7.5 0 01.349 2.39 7.5 7.5 0 01-.35 2.384 3.612 3.612 0 00-.186 1.258 2.008 2.008 0 01-2.006 2.012z" transform="translate(-179 -.511)"/><path id="Trazado_47" data-name="Trazado 47" class="cls-1" d="M241.008 15.47A2.008 2.008 0 01239 13.463a7.5 7.5 0 01.349-2.389 3.612 3.612 0 00.186-1.258 3.61 3.61 0 00-.186-1.259 7.5 7.5 0 01-.349-2.39 7.5 7.5 0 01.349-2.39 3.61 3.61 0 00.186-1.259 2.008 2.008 0 014.015 0 7.5 7.5 0 01-.349 2.39 3.61 3.61 0 00-.186 1.259 3.61 3.61 0 00.186 1.259 7.5 7.5 0 01.349 2.39 7.5 7.5 0 01-.35 2.384 3.612 3.612 0 00-.186 1.258 2.008 2.008 0 01-2.006 2.012z" transform="translate(-230.969 -.511)"/></g><path id="Trazado_48" data-name="Trazado 48" class="cls-1" d="M162.647 143.292h-3.411a2 2 0 00-1.519-.7h-31.179a2.008 2.008 0 00-2.008 2.008v18.6a7.581 7.581 0 00.961 3.7h33.272a7.582 7.582 0 00.961-3.7v-.43h2.923a9.74 9.74 0 100-19.481zm0 15.465h-2.923v-11.45h2.923a5.725 5.725 0 110 11.45z" transform="translate(-124.53 -123.577)"/></g><path id="Trazado_49" data-name="Trazado 49" class="cls-1" d="M68.53 356.19a2 2 0 00-2.008-2q-.082 0-.163.007H10.524a10.524 10.524 0 000 21.048h56a2.008 2.008 0 00.617-3.918h.1a12.282 12.282 0 01-1.754-4.6H9.9a2.008 2.008 0 010-4.015h55.588a12.282 12.282 0 011.748-4.595h-.088a2.008 2.008 0 001.382-1.917v-.013z" transform="translate(0 -306.339)"/></g></svg>