<svg id="work-time" xmlns="http://www.w3.org/2000/svg" width="31.891" height="31.891"><defs><style>.cls-1{fill:#ff0023}</style></defs><path id="Trazado_30" data-name="Trazado 30" class="cls-1" d="M307.54 301a6.571 6.571 0 000 13.142 6.571 6.571 0 100-13.142zm2.8 7.474h-3.737v-3.737h1.869v1.869h1.869zm0 0" transform="translate(-282.252 -282.252)"/><path id="Trazado_31" data-name="Trazado 31" class="cls-1" d="M134.08 5.668V0H121v5.668h3.737V3.8h5.606v1.868zm0 0" transform="translate(-113.463)"/><path id="Trazado_32" data-name="Trazado 32" class="cls-1" d="M45.945 130.343a8.418 8.418 0 008.409-8.409V121H30v.934a8.471 8.471 0 008.471 8.409h.934v-1.869h5.606v1.869zm0 0" transform="translate(-28.131 -113.463)"/><path id="Trazado_33" data-name="Trazado 33" class="cls-1" d="M211 271h1.869v1.869H211zm0 0" transform="translate(-197.858 -254.12)"/><path id="Trazado_34" data-name="Trazado 34" class="cls-1" d="M16.88 152.817a8.4 8.4 0 013.642-6.914 10.221 10.221 0 01-2.707.374h-.935v1.869h-5.606v-1.869h-.934A10.342 10.342 0 010 136v21.489h18.3a8.359 8.359 0 01-1.42-4.672zm0 0" transform="translate(0 -127.529)"/><path id="Trazado_35" data-name="Trazado 35" class="cls-1" d="M379.056 144.925V136a10.269 10.269 0 01-4.779 8.668 7.78 7.78 0 014.779.257zm0 0" transform="translate(-350.965 -127.529)"/></svg>