<svg id="graduation" xmlns="http://www.w3.org/2000/svg" width="40.602" height="47.461"><defs><style>.cls-1{fill:#ff0023}</style></defs><path id="Trazado_23" data-name="Trazado 23" class="cls-1" d="M24.009 11.958h22.525V2.781h2.271v7.972h2.781V2.781h2.456V0H16.5v2.781h7.509zm0 0" transform="translate(-14.97)"/><path id="Trazado_24" data-name="Trazado 24" class="cls-1" d="M127.5 161.832a8.482 8.482 0 1016.964 0V159H127.5zm0 0" transform="translate(-115.681 -144.261)"/><path id="Trazado_25" data-name="Trazado 25" class="cls-1" d="M31.41 285.18L20.3 300.2 9.192 285.18A12.256 12.256 0 000 297.03v9.175h40.6v-9.175a12.256 12.256 0 00-9.19-11.85zm0 0" transform="translate(0 -258.744)"/><path id="Trazado_26" data-name="Trazado 26" class="cls-1" d="M149.284 281.047h-.532a11.241 11.241 0 01-14.8 0h-.532l7.933 10.728zm0 0" transform="translate(-121.05 -254.994)"/></svg>