<svg xmlns="http://www.w3.org/2000/svg" width="45.176" height="29.67"><defs><style>.cls-1{fill:#ff0023}</style></defs><g id="laptop" transform="translate(0 -16.713)"><g id="Grupo_7" data-name="Grupo 7" transform="translate(0 16.713)"><path id="Trazado_19" data-name="Trazado 19" class="cls-1" d="M45.12 71.169a.23.23 0 00-.173-.08H.229a.23.23 0 00-.229.263c.006.042.681 4.182 5.916 4.182h33.341c5.235 0 5.909-4.141 5.916-4.182a.233.233 0 00-.053-.183zm-19.169 2.916h-6.727v-1.547h6.726z" transform="translate(0 -45.865)"/><path id="Trazado_20" data-name="Trazado 20" class="cls-1" d="M9.435 40.328h35.427a.928.928 0 00.928-.928V17.641a.928.928 0 00-.928-.928H9.435a.928.928 0 00-.928.928V39.4a.928.928 0 00.928.928zm2.319-20.368h30.788v17.12H11.754V19.96z" transform="translate(-4.561 -16.713)"/></g></g></svg>