<svg xmlns="http://www.w3.org/2000/svg" width="39.974" height="34.98"><defs><style>.cls-1{fill:#ff0023}</style></defs><g id="customer" transform="translate(0 -32.311)"><circle id="Elipse_1" data-name="Elipse 1" class="cls-1" cx="7" cy="7" r="7" transform="translate(13.09 32.311)"/><circle id="Elipse_2" data-name="Elipse 2" class="cls-1" cx="4.5" cy="4.5" r="4.5" transform="translate(29.09 37.311)"/><ellipse id="Elipse_3" data-name="Elipse 3" class="cls-1" cx="4" cy="4.5" rx="4" ry="4.5" transform="translate(2.09 37.311)"/><path id="Trazado_16" data-name="Trazado 16" class="cls-1" d="M10.477 241.738c-1.69-1.385-3.221-1.2-5.176-1.2A5.292 5.292 0 000 245.805v8.527a2.294 2.294 0 002.3 2.288c5.467 0 4.809.1 4.809-.236-.009-6.042-.72-10.473 3.368-14.646z" transform="translate(0 -191.884)"/><path id="Trazado_17" data-name="Trazado 17" class="cls-1" d="M132.647 239.942c-3.414-.285-6.381 0-8.94 2.116-4.283 3.431-3.459 8.05-3.459 13.7a2.739 2.739 0 002.734 2.734c16.48 0 17.136.532 18.113-1.633.32-.732.233-.5.233-7.5 0-5.561-4.815-9.417-8.681-9.417z" transform="translate(-110.801 -191.259)"/><path id="Trazado_18" data-name="Trazado 18" class="cls-1" d="M382.986 240.537c-1.965 0-3.488-.181-5.176 1.2 4.057 4.142 3.372 8.271 3.372 14.646 0 .337-.547.236 4.727.236a2.376 2.376 0 002.378-2.369v-8.445a5.292 5.292 0 00-5.301-5.268z" transform="translate(-348.312 -191.886)"/></g></svg>