<svg xmlns="http://www.w3.org/2000/svg" width="39.462" height="39.474"><path data-name="Trazado 22" d="M19.724 0A19.727 19.727 0 003.565 8.424l2.69.138 2.024.857-.286.243-1.5-.243-.024.29.548.378-.714.142v.429l-1.476.095L5.946 11.8l.191.857-.5.262-1.574-1.285v-.6l.382-.6-.286-.357-1.717 1.152-.507-.045c-.166.348-.321.7-.469 1.064l.834.1.794.905-.2.263-.621-.62-.28.31.483.638-.1 1.2H1.107l-.064.968 1.073.652.371.491-.563.152-1.596-1.216a20.328 20.328 0 00-.248 1.744l.673.706.109 1.105-.73.609-.132.05a19.812 19.812 0 00.553 4.122q.227.926.539 1.815c.075.214.153.425.236.636l.8-.311.012 1.547-.273.024c.064.136.132.272.2.407h.269l-.071.25-.082-.025c.037.071.071.143.109.213s.085.161.129.24c.2.356.405.706.623 1.047l.3-.021v.351h.318l.78-1.105h1.08l.921.555-.432.422-.514-.1.034.7.271.164.969.073.207-1.755.509.023.563.966.064 1.4.855.733.23.939-.555 1.268-.723.679a19.765 19.765 0 002.117 1.378l.652-.091.555-.381.08-1.217.633-.037.01.779.345-.068.233.417-.636.361-.633.28-.521.341a19.661 19.661 0 0017.22.348l-.983-.872-.883-1.549.125-1.5-.67-.889.273-1.507-.4-.112v-3.266s-1.11-.843-1.175-.843-.589-.142-.589-.142l-.112-.619-1.444-1.811.143-.651.048-1.065 1-.7-.141-1.189-1.461-.111-1.144-1.3-.811-.22-.524-.1.064-.476-.669-.095v.271l-1.667-.414-.663-1.024.274-.5-1.057-1.542-.18-1.127h-.437l.145 1.095.728 1.128-.078.446-.619-.095-.762-1.3v-1.509l-.793-.382v-1.683l1.479-1.795-.1-1.072.414-.294-.49-.461.03-.81-.587-.524h-1.634l-.269.286-1.955-.016-.714-.6.557-.4h1.429v-.267l-.667-.1.43-.334.935-.144 1.4-.952h2.411l1.32.4.444.254.4.031.589-.571 1.906-.017.429.239.81.174.063.317 1.287.048L23.253 5l-1.144-.031.271-.254-.094-.3h-1.034l1.13-.841h1.08l.505.7.844.048.507-.492.382.191-.7.683-.922.017a3.063 3.063 0 01.08.667l1.174-.031.127-.318.81-.048.095-.476-.476-.08.16-.435.366-.111 1.269.063-.7.636.112.491.732.111-.051-.89.7-.364 1.24-.143 1.793.794v.682l.573.143-.286.541h-.803l-.24.618-1.86-.438 1.455-.776-.555-.471-1.255.159-.109.113-.022.027-.359.375-.6.051.05.3.207.086-.009.1-.487.069-.034.282-.464.024-.084-.56-.834.248-1.7 1 .193.7.476.309.951.132v1.083l.441-.071.407-.847 1.012-.321v-1.3l.563-.425 1.362.321-.095.859h.364l1-.492.048 1.128.73.444-.032.667-.7.238.048.221.841.382-.016.461-.245.02a.018.018 0 000-.012l-1.06-.328-.046-.34.308-.213v-.309l-.334-.084-.084.287-.585.091-.057-.02v.029l-.2.03-.166-.334-.191-.084h-.423l-.189.155v.346l.357.118.352.05-.079.035-.321.356-.143-.179-.309-.082-.848.8.111.091-1.25.692-1.177 1.223-.08.544-1.179.774-.582.587.064 1.176-.81-.377.005-.691h-2.254l-1.166.591-.509.934-.2.742.327.719.921.111 1.462-.976.129.485-.446.842 1.112.19.112 1.719 1.524.259.967-1.119 1.177.239.414.573 1.128-.065.032-.334.618.3.7 1.095 1.206.017.444.78.063.953 1.335.509 1.683.017.493.809.745.239-.143.665-.817 1.039-.239 2.3-.738.584-1.1-.031-.366.635.272 1.192-1.187 1.527-.382.7-1.135.546-.748.113-.03.317.524.15-.063.342-.468.454.284.359.564.016-.034.436-.15.427-.051.348.477.4A19.737 19.737 0 0019.724 0zM8.948 29.337h-.855v-.905l-.491.047-.461.492-1.271.08-.016-.587h.382l-.016-.287-.589-.308-1.048-.152-.485-.6.723-.723.509.3-.041.554.532-.015.573-.3 2.049.93.078 1.1h.43v.368zm5.824-20.829l-.08.5h-.357a2.562 2.562 0 01-.08-.58zM28.481 11.3l-.4.033.021-.276.177-.221.239.187zm1.394-.489l-.272.024-.055.262-.209.131-.335.027a1.871 1.871 0 01-.018-.139h-.131v-.28h.548l.114-.293.218-.005.248.053z" fill="#ff0023"/></svg>