<svg id="XMLID_468_" xmlns="http://www.w3.org/2000/svg" width="16" height="16"><defs><style>.cls-1{fill:#fff}</style></defs><path id="XMLID_469_" class="cls-1" d="M89.359 85.255c-.035-.017-1.328-.654-1.558-.736a.9.9 0 00-.3-.067.513.513 0 00-.436.258c-.129.192-.52.649-.641.786-.016.018-.037.04-.05.04s-.212-.082-.272-.109a6.807 6.807 0 01-2.585-2.3.143.143 0 01-.022-.051.417.417 0 01.076-.09c.07-.07.147-.162.221-.25.035-.042.07-.084.1-.124a1.394 1.394 0 00.21-.334l.029-.058a.6.6 0 00-.018-.568c-.031-.061-.577-1.379-.635-1.518-.14-.334-.324-.49-.581-.49h-.1a3.1 3.1 0 00-1.076.277 2.251 2.251 0 00-.835 1.915 4.128 4.128 0 00.9 2.273l.037.053a8.426 8.426 0 003.614 3.138 5.878 5.878 0 002.183.558 3.412 3.412 0 00.355-.021l.063-.006a2.3 2.3 0 001.6-1.132 1.79 1.79 0 00.1-1.178.816.816 0 00-.379-.266z" transform="translate(-77.15 -75.899)"/><path id="XMLID_470_" class="cls-1" d="M8.142 0A7.838 7.838 0 00.284 7.8a7.742 7.742 0 001.077 3.944l-1.35 3.982a.208.208 0 00.26.265l4.152-1.319A7.871 7.871 0 0016 7.8 7.838 7.838 0 008.142 0zm0 13.974a6.226 6.226 0 01-3.425-1.021.208.208 0 00-.177-.024l-2.08.661.671-1.981a.208.208 0 00-.029-.189A6.09 6.09 0 011.917 7.8a6.225 6.225 0 116.225 6.174z"/></svg>